<svg width="87" height="95" viewBox="0 0 87 95" fill="none" xmlns="http://www.w3.org/2000/svg">
<circle cx="43.5" cy="51.5" r="43.5" fill="#EBF9F3"/>
<path d="M16.8164 0.481262C16.1697 0.827171 15.7185 1.18811 15.3726 1.66937C14.5003 2.90261 14.4251 3.48914 14.4251 9.62523V15.1146L13.0565 16.5434C7.9281 21.8824 4.67959 28.1839 3.44635 35.1923C3.28092 36.1397 3.07037 38.0497 2.96509 39.4183L2.79966 41.9149L2.27328 42.1104C1.98753 42.2157 1.46115 42.5616 1.1002 42.8924C-0.0728705 43.9753 -0.0277522 43.4489 0.017366 54.9841L0.0624843 65.226L0.513667 65.9629C0.799416 66.4141 1.2506 66.8653 1.70178 67.151L2.43871 67.6022L8.39432 67.6473L14.3499 67.6924L15.7035 68.8204C20.847 73.1367 27.1786 75.8739 34.0215 76.7763C36.3676 77.077 40.7742 77.077 43.1805 76.7612C49.6174 75.934 55.8437 73.227 61.0774 68.9858L62.7017 67.6774H68.4467C74.1768 67.6774 74.2068 67.6774 74.9588 67.3165C75.7709 66.9405 76.4627 66.2487 76.7936 65.4666C76.944 65.0756 76.9891 62.9851 76.9891 54.7435C76.9891 44.8325 76.9741 44.4866 76.6883 43.9452C76.5229 43.6444 76.3124 43.2835 76.2071 43.1631C75.8612 42.7571 74.9738 42.1405 74.5678 42.0352C74.1768 41.945 74.1768 41.9299 74.0715 39.9597C73.6203 30.9361 70.2063 23.0855 63.8748 16.4682L62.5663 15.0996L62.5212 9.15901L62.4761 3.21844L62.0249 2.33111C61.5136 1.33851 60.5059 0.45118 59.5434 0.165436C59.1373 0.0451202 53.2569 0 38.3679 0H17.7639L16.8164 0.481262ZM59.0471 2.79733C59.2727 2.96277 59.5885 3.33875 59.7389 3.63954C59.9795 4.1208 59.9946 4.75246 59.9645 11.6104L59.9194 19.07L51.7981 13.4904C44.9251 8.76798 43.6016 7.91074 43.1504 7.91074C42.6992 7.91074 40.6689 9.20413 29.8405 16.4381L17.057 24.9654L17.0119 14.9341C16.9818 9.39964 17.0119 4.60207 17.057 4.24112C17.1773 3.42899 17.7789 2.72214 18.4858 2.5567C18.7715 2.49654 27.9305 2.45142 38.8191 2.45142C58.5658 2.48151 58.626 2.48151 59.0471 2.79733ZM51.7229 16.5885L59.9194 22.2132L59.9645 24.9805C59.9946 27.4319 59.9645 27.8079 59.7239 28.2591C59.408 28.8456 58.626 29.3269 57.9943 29.3269C57.4078 29.3269 56.8363 29.9285 56.8363 30.5751C56.8363 31.4926 57.6484 32.0189 58.7613 31.8084C60.3104 31.5226 61.4985 30.6203 62.1302 29.2517C62.461 28.5298 62.4761 28.3042 62.5513 23.7021L62.6265 18.8895L63.4687 19.8671C68.3565 25.5069 71.0937 32.3498 71.5148 39.9597L71.6201 41.8096H65.0629C60.5811 41.8096 58.3854 41.8698 58.1447 41.975C57.7687 42.1405 57.4379 42.6819 57.4379 43.0879C57.4379 43.494 57.7687 44.0354 58.1447 44.2009C58.3854 44.3212 60.8518 44.3663 66.0855 44.3663H73.6654L74.0865 44.7272L74.5076 45.0882V54.7134V64.3387L74.1467 64.7297L73.7857 65.1207H61.2429H48.7L48.339 64.7447L47.963 64.3838V58.759C47.963 53.2847 47.948 53.1192 47.6472 52.7282C47.4066 52.4124 47.2111 52.3372 46.6847 52.3372C46.1583 52.3372 45.9628 52.4124 45.7222 52.7282C45.4214 53.1192 45.4063 53.2847 45.4063 58.9395C45.4063 64.459 45.4214 64.7748 45.7222 65.4215C45.8876 65.7975 46.2486 66.3239 46.5042 66.5946C47.4818 67.6172 47.3464 67.5872 53.2268 67.6774L58.5658 67.7526L56.8363 68.8956C51.1664 72.6705 45.286 74.4602 38.5032 74.4602C31.6603 74.4602 25.6596 72.6103 19.9145 68.7602L18.4256 67.7526L23.7496 67.6774C29.6149 67.6022 29.5097 67.6172 30.5023 66.6096C31.525 65.602 31.4949 65.8125 31.54 59.12L31.5851 53.044L31.2542 52.6981C30.8331 52.247 29.9458 52.2169 29.4495 52.6229L29.0886 52.9087L29.0134 58.7289L28.9382 64.5492L28.5772 64.835C28.2464 65.1057 27.8102 65.1207 15.7336 65.1207H3.2358L2.8899 64.7898L2.54399 64.474V54.7886V45.1032L2.91997 44.7423L3.28092 44.3663H11.0413H18.8016L19.1926 43.9753C19.5085 43.6444 19.5686 43.494 19.4934 42.9827C19.343 41.8246 19.734 41.8848 12.1542 41.8397L5.3714 41.7946L5.47668 40.1101C5.77746 35.1622 6.78511 31.2068 8.84551 26.9958C10.0637 24.5293 11.4924 22.2884 13.1618 20.3032L14.3499 18.8745L14.4251 23.6871C14.5154 29.0261 14.5304 29.1915 15.6132 30.4248C16.7111 31.673 19.1926 32.2746 19.8544 31.4474C20.5011 30.6503 19.9446 29.3269 18.967 29.3269C18.4858 29.3269 17.6586 28.8155 17.3277 28.3343C17.1322 28.0335 17.6586 27.6725 30.0962 19.3708C39.3605 13.1896 43.1354 10.7532 43.3008 10.8434C43.4211 10.9036 47.2111 13.4904 51.7229 16.5885Z" fill="#80D3A4"/>
<path d="M23.5989 4.94775C22.7717 5.20342 21.9446 5.74484 21.3731 6.40658C19.2676 8.7828 19.9894 12.5577 22.8018 13.9263C25.178 15.0994 28.0807 14.1368 29.2838 11.8057C29.8102 10.768 29.9155 9.06855 29.5244 7.9406C29.1184 6.78256 27.7047 5.36886 26.6068 5.05303C25.7646 4.79736 24.2456 4.75224 23.5989 4.94775ZM26.1255 7.66989C27.5844 8.55721 27.5543 10.6928 26.0654 11.535C25.3284 11.9561 24.6216 11.9712 23.8997 11.5651C22.7417 10.9034 22.3657 9.36934 23.1176 8.30154C23.7643 7.39918 25.178 7.09839 26.1255 7.66989Z" fill="#80D3A4"/>
<path d="M35.3447 22.063C35.089 22.2735 34.9537 22.7247 34.683 24.2587L34.3521 26.1838L33.179 26.6951C32.5323 26.9658 31.5247 27.5373 30.9532 27.9735L29.9004 28.7405L28.2461 28.1239C26.5316 27.5072 26.0353 27.417 25.554 27.6727C25.1329 27.8983 22.6965 32.2447 22.6965 32.756C22.6965 33.3275 23.0124 33.7035 24.4561 34.8766L25.6292 35.8541V38.5011V41.148L24.4561 42.1256C23.0124 43.2986 22.6965 43.6746 22.6965 44.2461C22.6965 44.7575 25.1329 49.1039 25.554 49.3294C26.0353 49.5851 26.5316 49.4949 28.2461 48.8783L29.9004 48.2617L30.8479 48.9685C31.8405 49.6904 32.9233 50.292 33.8107 50.6078L34.337 50.7883L34.683 52.7284C34.9537 54.2774 35.089 54.7286 35.3447 54.9392C35.6304 55.1647 36.0215 55.1948 38.5631 55.1948C41.2552 55.1948 41.4657 55.1798 41.7214 54.894C41.947 54.6384 42.1876 53.6458 42.699 50.7131C42.699 50.698 42.7892 50.683 42.9095 50.683C43.2705 50.683 45.4512 49.5099 46.2783 48.8783L47.0754 48.2617L48.7298 48.8783C50.5646 49.54 51.091 49.6002 51.5421 49.2091C51.7226 49.0738 52.3994 48.006 53.0611 46.8479C54.7155 43.9754 54.7155 44.0055 52.8205 42.3662L51.3466 41.0878L51.3617 38.486L51.3767 35.8842L52.8355 34.6209C54.7004 33.0117 54.7004 33.0418 53.1213 30.2444C52.4746 29.1165 51.7978 28.0487 51.6173 27.8532C51.1511 27.3869 50.6247 27.432 48.7448 28.1389L47.0905 28.7555L46.2934 28.1239C45.4512 27.4922 43.2705 26.3191 42.9095 26.3191C42.7892 26.3191 42.699 26.3041 42.699 26.274C42.1124 22.9052 41.962 22.3337 41.6462 22.078C41.3454 21.8374 40.9845 21.8073 38.4879 21.8073C36.0215 21.8073 35.6304 21.8374 35.3447 22.063ZM40.037 26.0935C40.3679 28.0336 40.5032 28.2141 41.947 28.7254C43.1351 29.1315 44.3082 29.8233 45.376 30.7407C46.3836 31.598 46.6844 31.613 48.6696 30.9062C49.4817 30.6204 50.1585 30.3798 50.1736 30.3798C50.1886 30.3798 50.4593 30.846 50.7902 31.4175L51.3918 32.4703L50.0532 33.5681C49.2562 34.2148 48.6696 34.8164 48.6095 35.042C48.5643 35.2375 48.5944 35.8692 48.6847 36.4256C48.9102 37.7341 48.9102 39.2681 48.6847 40.5765C48.5944 41.133 48.5643 41.7646 48.6095 41.9601C48.6696 42.1857 49.2712 42.8023 50.0532 43.449L51.3918 44.5469L50.7902 45.5846C50.4593 46.1561 50.1736 46.6224 50.1435 46.6224C50.1284 46.6224 49.4517 46.3817 48.6546 46.096C46.6994 45.3891 46.3836 45.4042 45.376 46.2614C44.3082 47.1788 43.1351 47.8706 41.947 48.2767C40.5182 48.773 40.3528 48.9986 40.0671 50.683C39.6911 53.0291 39.8565 52.7885 38.4879 52.7885C37.8262 52.7885 37.2848 52.7735 37.2848 52.7434C37.2848 52.4125 36.6381 49.2242 36.5328 49.0287C36.4426 48.8783 36.0365 48.6376 35.6004 48.5023C34.337 48.0812 32.6226 47.1337 31.6751 46.3216C30.5922 45.4042 30.3215 45.3741 28.3514 46.096C27.5543 46.3817 26.8625 46.6224 26.8324 46.6224C26.7572 46.6224 25.7044 44.7123 25.7044 44.562C25.7044 44.5018 26.291 43.9754 26.9828 43.3889C27.7498 42.7723 28.3062 42.2008 28.3664 41.9752C28.4115 41.7797 28.3814 41.1029 28.2762 40.4712C28.0656 39.0274 28.0656 37.9747 28.2762 36.5309C28.3814 35.8992 28.4115 35.2225 28.3664 35.027C28.3062 34.8014 27.7498 34.2299 26.9828 33.6133C26.291 33.0267 25.7044 32.5003 25.7044 32.4402C25.7044 32.2898 26.7572 30.3798 26.8324 30.3798C26.8625 30.3798 27.5543 30.6204 28.3514 30.9062C30.3215 31.628 30.5922 31.598 31.6751 30.6806C32.6226 29.8684 34.337 28.921 35.6004 28.4998C36.0365 28.3645 36.4426 28.1389 36.5178 27.9885C36.593 27.8532 36.7734 27.1313 36.9088 26.3793C37.3149 24.1083 37.1193 24.349 38.518 24.3941L39.7512 24.4392L40.037 26.0935Z" fill="#80D3A4"/>
<path d="M36.2321 31.4023C35.074 31.7933 34.1416 32.3648 33.2392 33.2672C31.7804 34.726 31.1187 36.3503 31.1187 38.5009C31.1187 40.6515 31.7804 42.2758 33.2392 43.7497C34.8334 45.3288 36.4576 45.9454 38.8489 45.8401C40.6837 45.7499 41.7064 45.404 43.0449 44.3964C46.8499 41.4937 46.8499 35.5081 43.0449 32.6054C41.6462 31.5527 40.6988 31.2369 38.7136 31.1767C37.4202 31.1466 36.8788 31.1917 36.2321 31.4023ZM40.5183 34.1244C44.3233 35.9442 44.2481 41.1779 40.3829 42.9526C39.6009 43.2985 39.3753 43.3436 38.2774 43.2834C36.4125 43.1782 35.0891 42.351 34.1867 40.7267C33.7957 40.0048 33.7506 39.7943 33.7506 38.5009C33.7506 37.2977 33.8107 36.9669 34.0965 36.4255C34.6379 35.4178 35.4199 34.6358 36.4125 34.1395C37.1946 33.7635 37.5104 33.6883 38.4729 33.6883C39.4204 33.6883 39.7663 33.7635 40.5183 34.1244Z" fill="#80D3A4"/>
<path d="M10.7252 46.9229C9.89807 47.2537 9.9131 47.1785 9.9131 54.7133C9.9131 61.842 9.92814 62.0826 10.4996 62.5188C11.1012 62.985 11.5524 62.7744 17.3576 59.2552C20.5009 57.3452 23.1628 55.6758 23.2681 55.5405C23.5689 55.1194 23.4937 54.232 23.1177 53.8861C22.8019 53.6004 12.8308 47.4944 11.8382 46.983C11.387 46.7424 11.1764 46.7274 10.7252 46.9229ZM16.2297 52.6379C17.9291 53.6605 19.403 54.5629 19.4932 54.6531C19.6436 54.7885 18.8315 55.3299 16.2146 56.9241C14.3046 58.0821 12.6804 59.0447 12.6052 59.0747C12.53 59.1048 12.4698 57.27 12.4698 54.7434V50.3519L12.8157 50.5624C12.9962 50.6827 14.5302 51.6152 16.2297 52.6379Z" fill="#80D3A4"/>
<path d="M59.7987 48.6077C59.1821 49.0588 59.2723 50.4876 59.919 50.7433C60.0544 50.7884 62.3855 50.8335 65.1076 50.8335C69.7247 50.8335 70.0556 50.8185 70.3865 50.5477C70.6572 50.3372 70.7474 50.1116 70.7474 49.6303C70.7474 49.1491 70.6572 48.9235 70.3865 48.7129C70.0556 48.4422 69.7247 48.4272 65.0475 48.4272C61.2876 48.4272 59.9942 48.4723 59.7987 48.6077Z" fill="#80D3A4"/>
<path d="M53.1664 53.8563C52.8506 54.0969 52.7754 54.2924 52.7754 54.8188C52.7754 55.3452 52.8506 55.5407 53.1664 55.7813C53.5574 56.0972 53.7078 56.0972 61.6637 56.0972C67.2734 56.0972 69.8752 56.052 70.1158 55.9317C70.8979 55.5708 71.0182 54.6233 70.3866 53.9766L69.9504 53.5405H61.7539C53.6928 53.5405 53.5574 53.5405 53.1664 53.8563Z" fill="#80D3A4"/>
<path d="M53.0762 59.1049C52.8807 59.3004 52.7754 59.6012 52.7754 60.0073C52.7754 60.4134 52.8807 60.7141 53.0762 60.9097C53.377 61.2104 53.5725 61.2104 61.769 61.2104C70.0858 61.2104 70.176 61.2104 70.4618 60.8946C70.8829 60.4284 70.8377 59.4508 70.3866 59.0899C70.0557 58.8192 69.6496 58.8041 61.7088 58.8041C53.5725 58.8041 53.377 58.8041 53.0762 59.1049Z" fill="#80D3A4"/>
</svg>
