<svg width="20" height="20" viewBox="0 0 20 20" fill="none" xmlns="http://www.w3.org/2000/svg">
<path d="M13.9999 5.00005C13.9999 4.44776 14.4477 4.00005 14.9999 4.00005C15.5522 4.00005 15.9999 4.44776 15.9999 5.00005C15.9999 5.55233 15.5522 6.00005 14.9999 6.00005C14.4477 6.00005 13.9999 5.55233 13.9999 5.00005Z" fill="#828282"/>
<path fill-rule="evenodd" clip-rule="evenodd" d="M9.99994 5.25005C7.37659 5.25005 5.24994 7.37669 5.24994 10C5.24994 12.6234 7.37659 14.75 9.99994 14.75C12.6233 14.75 14.7499 12.6234 14.7499 10C14.7499 7.37669 12.6233 5.25005 9.99994 5.25005ZM6.74994 10C6.74994 8.20512 8.20501 6.75005 9.99994 6.75005C11.7949 6.75005 13.2499 8.20512 13.2499 10C13.2499 11.795 11.7949 13.25 9.99994 13.25C8.20501 13.25 6.74994 11.795 6.74994 10Z" fill="#828282"/>
<path fill-rule="evenodd" clip-rule="evenodd" d="M15.2582 0.833061C11.7916 0.44562 8.20828 0.44562 4.74171 0.833061C2.72965 1.05794 1.10532 2.64295 0.868765 4.66548C0.454227 8.20978 0.454227 11.7903 0.868765 15.3346C1.10532 17.3571 2.72965 18.9422 4.74171 19.167C8.20828 19.5545 11.7916 19.5545 15.2582 19.167C17.2702 18.9422 18.8946 17.3571 19.1311 15.3346C19.5457 11.7903 19.5457 8.20978 19.1311 4.66548C18.8946 2.64295 17.2703 1.05794 15.2582 0.833061ZM4.90832 2.32378C8.26416 1.94871 11.7357 1.94871 15.0916 2.32378C16.4217 2.47244 17.4872 3.52205 17.6413 4.83973C18.0423 8.26825 18.0423 11.7318 17.6413 15.1604C17.4872 16.478 16.4217 17.5277 15.0916 17.6763C11.7357 18.0514 8.26417 18.0514 4.90832 17.6763C3.57821 17.5277 2.51272 16.478 2.35861 15.1604C1.95761 11.7318 1.95761 8.26825 2.35861 4.83973C2.51272 3.52205 3.57821 2.47244 4.90832 2.32378Z" fill="#828282"/>
</svg>
