<svg width="22" height="19" viewBox="0 0 22 19" fill="none" xmlns="http://www.w3.org/2000/svg">
<path fill-rule="evenodd" clip-rule="evenodd" d="M14.0214 0.343523C14.5298 0.256441 15.0991 0.227365 15.6349 0.318007C16.5917 0.47989 17.4756 0.924618 18.1742 1.59138C18.6309 1.60171 19.0797 1.51173 19.4769 1.38347C19.813 1.27492 20.0969 1.14385 20.2959 1.04021C20.3948 0.988681 20.4712 0.944723 20.5209 0.914963C20.5457 0.900107 20.5637 0.888862 20.5744 0.882071L20.5839 0.87601C20.8807 0.678282 21.276 0.716765 21.5288 0.968271C21.7818 1.21984 21.8225 1.61476 21.6263 1.91266C21.4185 2.22795 21.1302 2.79002 20.8071 3.41978C20.7563 3.5188 20.7047 3.61949 20.6523 3.72116C20.4671 4.08113 20.2771 4.44494 20.1 4.75707C19.9888 4.95306 19.8699 5.15204 19.75 5.32398V5.59775C19.7576 6.60338 19.6422 7.60377 19.4082 8.57698C19.2609 9.18933 19.0666 9.79092 18.8264 10.3763C18.2039 11.893 17.2855 13.2704 16.1248 14.4282C14.9641 15.5859 13.5843 16.5008 12.066 17.1193C10.5491 17.7373 8.92438 18.0471 7.28653 18.0306C4.91222 18.0327 2.58785 17.3486 0.593133 16.0607C0.299332 15.871 0.175633 15.5035 0.29497 15.1747C0.414306 14.846 0.744999 14.6434 1.09207 14.6863C1.39243 14.7235 1.69484 14.7416 1.99749 14.7407C3.08494 14.7376 4.15168 14.4973 5.12554 14.0447C4.816 13.9038 4.52046 13.73 4.24431 13.5253C3.43259 12.9234 2.82868 12.0834 2.51661 11.1223C2.43552 10.8725 2.49096 10.5985 2.66277 10.3999C2.66585 10.3964 2.66896 10.3929 2.67209 10.3894C2.48856 10.2257 2.31683 10.0475 2.15874 9.8559C1.44742 8.9937 1.05574 7.91226 1.04996 6.79453L1.04994 6.79065L1.04995 6.74065C1.04995 6.47478 1.19071 6.22879 1.41991 6.09407C1.47801 6.05992 1.53959 6.03421 1.60294 6.01697C1.26461 5.34189 1.08867 4.59644 1.08995 3.84018C1.08955 2.98342 1.31335 2.14145 1.73911 1.39795C1.86202 1.18331 2.08285 1.04307 2.32938 1.0231C2.57591 1.00312 2.81644 1.10598 2.9723 1.29802C3.93485 2.48403 5.13614 3.45429 6.49813 4.14576C7.19826 4.50121 7.93281 4.77891 8.68861 4.97534C9.11235 5.08547 9.54276 5.17006 9.97753 5.22849C9.95838 4.50523 10.1012 3.78236 10.4009 3.11443C10.8406 2.1346 11.5931 1.32843 12.5403 0.822334C12.9415 0.608005 13.474 0.437294 14.0214 0.343523ZM2.74323 7.89102C2.87287 8.25591 3.06574 8.59823 3.3158 8.90133C3.80712 9.49687 4.48907 9.90443 5.24628 10.0551C5.58357 10.1222 5.83201 10.41 5.84903 10.7535C5.86606 11.097 5.64731 11.408 5.31831 11.5082C5.04581 11.5911 4.76664 11.6489 4.48428 11.681C4.67086 11.9215 4.89034 12.1369 5.13775 12.3204C5.69894 12.7365 6.37588 12.9673 7.07439 12.9808C7.39131 12.9869 7.67017 13.1916 7.771 13.4921C7.87183 13.7926 7.77284 14.124 7.52373 14.3201C6.47457 15.1456 5.26137 15.7213 3.97582 16.0151C5.0413 16.3564 6.15875 16.532 7.28904 16.5306L7.29774 16.5306C8.7378 16.5456 10.1664 16.2735 11.5001 15.7302C12.8338 15.1868 14.0459 14.3832 15.0655 13.3661C16.0851 12.3491 16.8919 11.1391 17.4387 9.80681C17.6497 9.29258 17.8204 8.76412 17.9497 8.22621C18.1556 7.37044 18.2569 6.49078 18.25 5.60651L18.25 5.60065V5.07065C18.25 4.88879 18.316 4.71314 18.4359 4.57636C18.5051 4.49732 18.6263 4.31476 18.7953 4.01686C18.956 3.73374 19.1338 3.39383 19.3187 3.03465C19.3299 3.01293 19.3411 2.99109 19.3523 2.96915C18.8728 3.0733 18.3292 3.12789 17.7594 3.06631C17.5789 3.0468 17.4116 2.96252 17.2886 2.82908C16.7857 2.28374 16.1161 1.92073 15.3847 1.79699C15.0601 1.74209 14.6678 1.75465 14.2747 1.82199C13.8475 1.89515 13.4758 2.02317 13.2472 2.14534C12.5929 2.49491 12.0732 3.05175 11.7695 3.72854C11.4658 4.40533 11.3953 5.16377 11.5691 5.88493C11.6245 6.11484 11.5682 6.35742 11.4172 6.53945C11.2663 6.72148 11.0383 6.82164 10.8021 6.80969C9.95865 6.76703 9.12417 6.63838 8.31129 6.42711C7.45139 6.20362 6.61566 5.88767 5.81909 5.48326C4.64631 4.88785 3.57826 4.11075 2.65342 3.18306C2.61123 3.39868 2.58981 3.6187 2.58995 3.84015L2.58995 3.84207C2.58891 4.39279 2.72406 4.93522 2.98337 5.42107C3.24268 5.90692 3.6181 6.32111 4.07621 6.62676C4.35423 6.81226 4.47596 7.15934 4.37471 7.47786C4.27345 7.79638 3.97366 8.00946 3.63955 8.00037C3.33696 7.99214 3.0369 7.95533 2.74323 7.89102Z" fill="#828282"/>
</svg>
