<svg width="208" height="107" viewBox="0 0 208 107" fill="none" xmlns="http://www.w3.org/2000/svg">
<rect x="8.20984" y="34.5388" width="184.596" height="67.1259" rx="2.66978" transform="rotate(-8.2342 8.20984 34.5388)" stroke="#6F77F1" stroke-width="2.28838"/>
<path d="M58.5156 62.55C58.6445 63.4408 58.7011 64.2511 58.6855 64.981L40.6464 67.5914C41.0527 69.3516 41.8782 70.657 43.123 71.5076C44.3678 72.3582 45.7919 72.6674 47.3954 72.4354C49.7115 72.1002 51.2156 70.867 51.9076 68.7357L58.6332 67.7624C58.2643 70.2411 57.182 72.3985 55.3863 74.2348C53.5863 76.0414 51.2164 77.1574 48.2767 77.5828C45.9012 77.9266 43.688 77.7163 41.6372 76.952C39.6118 76.1538 37.9249 74.8669 36.5766 73.0915C35.258 71.3118 34.4161 69.16 34.0509 66.636C33.6813 64.0823 33.8765 61.7652 34.6365 59.6847C35.3965 57.6042 36.6366 55.909 38.357 54.599C40.0773 53.289 42.1549 52.4578 44.5898 52.1054C46.9356 51.7659 49.1021 51.9678 51.0892 52.711C53.106 53.4499 54.7546 54.6816 56.0349 56.4062C57.3406 58.0969 58.1675 60.1448 58.5156 62.55ZM51.7993 61.703C51.5376 60.1038 50.7738 58.9107 49.5079 58.1238C48.2377 57.3072 46.7861 57.0171 45.1529 57.2534C43.6088 57.4768 42.371 58.141 41.4395 59.2459C40.5335 60.3168 40.082 61.7009 40.085 63.3981L51.7993 61.703ZM78.5594 72.7913L72.3731 65.8651L68.9831 74.1771L62.3019 75.1439L68.572 61.5949L58.642 50.4812L65.6795 49.4628L71.8148 56.3509L75.2558 48.077L81.9369 47.1101L75.6094 60.5765L85.5968 71.7729L78.5594 72.7913ZM92.1642 49.268C92.8027 48.0236 93.766 46.9293 95.0542 45.9849C96.3678 45.0066 97.9302 44.3864 99.7415 44.1243C101.85 43.8192 103.825 44.0639 105.668 44.8582C107.541 45.6483 109.107 46.9375 110.366 48.7258C111.651 50.4801 112.476 52.6192 112.841 55.1432C113.206 57.6672 113.026 59.9821 112.3 62.088C111.599 64.1599 110.465 65.855 108.898 67.1732C107.36 68.4871 105.537 69.2966 103.428 69.6017C101.617 69.8638 99.9599 69.7247 98.4569 69.1843C96.9835 68.6396 95.7346 67.8654 94.7102 66.8617L96.9211 82.1392L90.6853 83.0416L85.4128 46.6071L91.6486 45.7047L92.1642 49.268ZM106.472 56.0649C106.257 54.5802 105.76 53.3485 104.982 52.3698C104.229 51.357 103.307 50.6416 102.216 50.2235C101.154 49.8011 100.044 49.6737 98.8863 49.8413C97.758 50.0046 96.732 50.4563 95.8083 51.1962C94.91 51.9022 94.2286 52.8497 93.764 54.0386C93.3292 55.2232 93.2191 56.5579 93.434 58.0426C93.6489 59.5273 94.1327 60.776 94.8856 61.7887C95.6681 62.7971 96.5923 63.5274 97.6582 63.9795C98.7494 64.3976 99.8592 64.525 100.988 64.3617C102.146 64.1941 103.172 63.7425 104.066 63.0068C104.989 62.2668 105.669 61.3045 106.103 60.1199C106.568 58.931 106.691 57.5793 106.472 56.0649ZM140.246 50.7226C140.375 51.6134 140.432 52.4237 140.416 53.1536L122.377 55.764C122.784 57.5242 123.609 58.8296 124.854 59.6802C126.099 60.5308 127.523 60.84 129.126 60.608C131.442 60.2728 132.946 59.0396 133.638 56.9083L140.364 55.935C139.995 58.4137 138.913 60.5711 137.117 62.4074C135.317 64.214 132.947 65.33 130.008 65.7554C127.632 66.0992 125.419 65.8889 123.368 65.1246C121.343 64.3264 119.656 63.0395 118.307 61.2641C116.989 59.4844 116.147 57.3326 115.782 54.8086C115.412 52.2549 115.607 49.9378 116.367 47.8573C117.127 45.7768 118.367 44.0816 120.088 42.7716C121.808 41.4616 123.886 40.6304 126.321 40.278C128.666 39.9385 130.833 40.1404 132.82 40.8836C134.837 41.6225 136.485 42.8542 137.766 44.5788C139.071 46.2694 139.898 48.3174 140.246 50.7226ZM133.53 49.8755C133.268 48.2764 132.505 47.0833 131.239 46.2964C129.969 45.4798 128.517 45.1897 126.884 45.426C125.34 45.6494 124.102 46.3136 123.17 47.4185C122.264 48.4894 121.813 49.8735 121.816 51.5707L133.53 49.8755ZM149.88 41.1887C150.493 39.7662 151.384 38.5913 152.553 37.6642C153.752 36.7328 155.183 36.1468 156.846 35.9061L157.793 42.4536L156.145 42.6921C154.186 42.9757 152.768 43.6508 151.891 44.7174C151.044 45.7798 150.787 47.4541 151.117 49.7406L152.896 62.0339L146.661 62.9362L143.09 38.2606L149.326 37.3582L149.88 41.1887ZM169.099 39.7262L170.826 51.6632C170.947 52.4946 171.228 53.0754 171.67 53.4056C172.137 53.7017 172.846 53.7811 173.796 53.6436L176.691 53.2246L177.452 58.4804L173.532 59.0476C168.276 59.8082 165.279 57.6348 164.54 52.5275L162.819 40.635L159.879 41.0605L159.138 35.9383L162.077 35.5128L161.194 29.4107L167.475 28.5019L168.358 34.604L173.881 33.8048L174.622 38.927L169.099 39.7262Z" fill="#6F77F1"/>
<circle cx="7.34551" cy="33.8926" r="6.48375" transform="rotate(-8.2342 7.34551 33.8926)" fill="#6F77F1"/>
<ellipse cx="191.171" cy="7.29098" rx="6.10236" ry="6.48375" transform="rotate(-8.2342 191.171 7.29098)" fill="#6F77F1"/>
<ellipse cx="200.676" cy="72.9702" rx="6.10236" ry="6.48375" transform="rotate(-8.2342 200.676 72.9702)" fill="#6F77F1"/>
<circle cx="16.8502" cy="99.5718" r="6.48375" transform="rotate(-8.2342 16.8502 99.5718)" fill="#6F77F1"/>
</svg>
